<svg id="Layer_1" data-name="Layer 1" xmlns="http://www.w3.org/2000/svg" width="64" height="64" viewBox="0 0 64 64"><defs><style>.cls-1{fill:#5a7e76;}.cls-2{fill:#fff;}</style></defs><title>nav-icon-green</title><path class="cls-1" d="M48.5375,15.6473l.8305,1.3842v-1.44l-.8305-1.3842ZM13.6561,7.5V45.05l.83.8581V8.3305H48.5375v5.16l.8305-.2879V7.5ZM48.5375,20.4006v28.503l-.6451.6755-5.4453,5.6973-.3765.3931H14.4866V52.0651a4.1428,4.1428,0,0,1-.83-.3931V56.5H42.4249l6.9431-7.2642V18.5375Z"/><polygon class="cls-1" points="42.447 56.223 41.617 56.223 41.617 48.749 48.537 48.749 48.537 49.579 42.447 49.579 42.447 56.223"/><rect class="cls-1" x="25.2832" y="15.8051" width="9.4303" height="0.8305"/><rect class="cls-1" x="25.2832" y="21.6186" width="18.2712" height="0.8305"/><rect class="cls-1" x="25.2832" y="27.4322" width="18.2712" height="0.8305"/><rect class="cls-1" x="25.2832" y="32.6921" width="18.2712" height="0.8305"/><rect class="cls-1" x="25.2832" y="38.2288" width="15.5207" height="0.8305"/><rect class="cls-1" x="25.2832" y="43.7655" width="9.4303" height="0.8305"/><rect class="cls-1" x="17.8086" y="15.8051" width="4.1525" height="0.8305"/><rect class="cls-1" x="17.8086" y="21.6186" width="4.1525" height="0.8305"/><rect class="cls-1" x="17.8086" y="27.4322" width="4.1525" height="0.8305"/><rect class="cls-1" x="17.8086" y="32.6921" width="4.1525" height="0.8305"/><rect class="cls-1" x="17.8086" y="38.2288" width="4.1525" height="0.8305"/><rect class="cls-1" x="17.8086" y="43.7655" width="4.1525" height="0.8305"/><rect class="cls-1" x="17.8086" y="15.8051" width="4.1525" height="0.8305"/><rect class="cls-1" x="17.8086" y="21.6186" width="4.1525" height="0.8305"/><rect class="cls-1" x="17.8086" y="27.4322" width="4.1525" height="0.8305"/><rect class="cls-1" x="17.8086" y="32.6921" width="4.1525" height="0.8305"/><rect class="cls-1" x="17.8086" y="38.2288" width="4.1525" height="0.8305"/><rect class="cls-1" x="17.8086" y="43.7655" width="4.1525" height="0.8305"/><path class="cls-1" d="M23.21,45.6812a4.88,4.88,0,0,0-1.3758-3.3331l-.3461-.3571-.5149-.5315-.6063-.6284-.0609-.0637a4.91,4.91,0,0,0-3.2168-1.4285c-.0526-.0027-.108-.0055-.1606-.0055-.119-.0056-.2381-.0028-.3571.0028-.0471.0027-.0969.0055-.144.011-.1079.0056-.2187.0194-.3266.0332-.0471.0084-.0914.0139-.1357.0222s-.0886.0166-.13.0249a4.5567,4.5567,0,0,0-.753.2132,4.2085,4.2085,0,0,0-.5952.2657,4.761,4.761,0,0,0-.6035.3765,2.698,2.698,0,0,0-.227.18c-.0941.0747-.1882.1578-.2768.2436l-2.4057,2.3254a4.9531,4.9531,0,0,0-.1218,6.9874l1.4644,1.517.0609.0609a4.8793,4.8793,0,0,0,1.279.9191,4.6058,4.6058,0,0,0,.83.3239,4.96,4.96,0,0,0,4.817-1.1821l.382-.3682,2.0237-1.9544a4.9349,4.9349,0,0,0,1.0436-1.459v-.0027a4.9123,4.9123,0,0,0,.2907-.7918q.0373-.1411.0665-.2823l.0249-.1329c.0194-.108.036-.2159.047-.3239a1.3424,1.3424,0,0,0,.0111-.15c.0111-.108.0166-.2159.0194-.3267v-.0249C23.2125,45.7892,23.2125,45.7366,23.21,45.6812Zm-.7419-.0775c.0055.0831.0083.1661.0055.2492,0,.0415-.0027.083-.0055.1246a1.3389,1.3389,0,0,1-.0083.15,4.1667,4.1667,0,0,1-1.2624,2.6742l-1.4949,1.4423-.5315.5149-.382.3682a4.2186,4.2186,0,0,1-4.3021.9385,4.1428,4.1428,0,0,1-.83-.3931,4.0791,4.0791,0,0,1-.7558-.598l-1.517-1.57a4.2111,4.2111,0,0,1,.1052-5.9408l.3793-.3655.2685-.26,1.52-1.4672.2381-.23a4.103,4.103,0,0,1,.4651-.3876c.0415-.03.0858-.0609.1273-.0886a4.1832,4.1832,0,0,1,2.1289-.6893c.05-.0028.1-.0055.1522-.0055.1246,0,.2492.0027.371.0138.0554.0028.1135.0083.1689.0166a3.2826,3.2826,0,0,1,.4318.072c.0692.0138.1357.0305.2021.05a4.1406,4.1406,0,0,1,1.841,1.0686l.6589.681.5121.5343.346.3571a4.0887,4.0887,0,0,1,.6617.9025,4.0337,4.0337,0,0,1,.3986,1.0326c.0166.0665.03.1357.0416.2021a3.7081,3.7081,0,0,1,.0581.4319v.0028A1.6622,1.6622,0,0,1,22.4678,45.6037Z"/><rect class="cls-2" x="15.3156" y="26.0044" width="32.5013" height="11.2526" transform="translate(-13.1131 30.8024) rotate(-43.9964)"/><path class="cls-1" d="M47.6045,24.3123l-.5536-.5731-7.0345-7.2836-.5647-.5868-.0941-.0969-6.0544,5.8467-.861.8306-5.16,4.983-.861.83-4.5871,4.4294-.8583.83L16.059,38.27l-.6145.5925.2131.2214.2575.2658.05.0526.6506.6727,3.5629,3.69.8028.83L22.46,46.127,23.11,46.8l.1079.1135.2575.2657.2574.2658.0416.0443L26.77,44.596l.861-.83,4.8723-4.7062.861-.8305,4.8751-4.7062.8582-.83,8.59-8.294ZM23.8741,46.365l-.08.0775-.5813-.6007L22.4014,45l-.44-.4568-.753-.7779-.753-.7806-.5122-.5316-2.2036-2.2811-.8111-.8388-.4374-.454.08-.0775L27.4868,28.2627l.861-.83,5.16-4.983.861-.8306,4.972-4.8,7.3,7.5632-3.1587,3.0507-.8609.83-4.5872,4.4294-.861.83L32.301,38.2288l-.8609.8305L26.565,43.7655l-.8582.83Z"/><rect class="cls-1" x="15.2341" y="31.5859" width="32.2588" height="0.7405" transform="translate(-13.3952 30.7209) rotate(-43.9554)"/><polygon class="cls-1" points="53.554 10.963 49.368 20.356 48.537 22.219 47.605 24.312 47.502 24.542 47.164 24.39 46.827 24.24 46.888 24.102 47.051 23.739 48.537 20.401 49.368 18.537 49.753 17.671 50.121 16.849 52.181 12.226 49.368 13.203 48.537 13.491 48.183 13.615 47.466 13.864 40.016 16.456 39.632 16.589 39.471 16.644 39.227 15.946 39.452 15.869 47.616 13.028 47.793 12.968 48.537 12.707 49.368 12.419 53.554 10.963"/><polygon class="cls-1" points="50.486 17.458 49.852 17.837 49.753 17.671 49.368 17.031 48.537 15.647 47.466 13.864 47.137 13.316 47.616 13.028 47.773 12.934 47.793 12.968 48.183 13.615 48.537 14.208 49.368 15.592 50.121 16.849 50.486 17.458"/><rect class="cls-2" x="15.0171" y="39.1488" width="5.6947" height="11.2526" transform="translate(-26.0874 24.9713) rotate(-43.9936)"/><path class="cls-1" d="M22.4678,45.6037a1.6622,1.6622,0,0,0-.0083-.1688v-.0028l-.8084-.8361h-.5149l1.3316,1.3815c.0028-.0416.0055-.0831.0055-.1246C22.4761,45.77,22.4733,45.6868,22.4678,45.6037Zm1.661,1.0271-.2547-.2658-.6644-.6838-.85-.8831-.3986-.4125-.598-.62-.8277-.8554-.5149-.5343L17.9415,40.222l-.8526-.8831-.5177-.537-.2575-.2658L16.059,38.27l-.0442-.0443-1.5282,1.4756-.6035.5813-.227.2187L11.3833,42.697l.4845.501L13.6561,45.05l.83.8581,4.6841,4.85.5149.5315.03.0333,4.0168-3.8785.6118-.59Zm-.9108.2824-.1744.1688-3.311,3.1947-.03-.0332-5.2156-5.4011-.83-.8609-1.2236-1.2679,1.2236-1.1821.7032-.6783.1273-.1245,1.3482-1.3012.08-.0775.08-.0775.1052.1079.6671.6894,3.5657,3.6957.8028.83,1.3316,1.3815.6672.6893.1633.1689Zm-.75-1.3095a1.6622,1.6622,0,0,0-.0083-.1688v-.0028l-.8084-.8361h-.5149l1.3316,1.3815c.0028-.0416.0055-.0831.0055-.1246C22.4761,45.77,22.4733,45.6868,22.4678,45.6037Z"/></svg>