<svg id="Layer_1" data-name="Layer 1" xmlns="http://www.w3.org/2000/svg" width="64" height="64" viewBox="0 0 64 64"><defs><style>.cls-1{fill:#191e1c;}.cls-2{fill:#fff;}</style></defs><title>nav-icon</title><path class="cls-1" d="M47.5188,47.333H16.4147a2.11,2.11,0,0,1-2.0686-2.096V27.1957a1.95,1.95,0,0,1,2.0686-1.91H47.5188a2.0323,2.0323,0,0,1,2.1591,1.91V45.237A2.184,2.184,0,0,1,47.5188,47.333ZM16.4147,26.1339a1.1175,1.1175,0,0,0-1.2206,1.0618V45.237a1.2668,1.2668,0,0,0,1.2206,1.248H47.5188A1.3492,1.3492,0,0,0,48.83,45.237V27.1957a1.2158,1.2158,0,0,0-1.3111-1.0618Z"/><polygon class="cls-2" points="32 12.118 4.945 25.697 32 39.276 59.055 25.697 32 12.118"/><path class="cls-1" d="M32,39.7506,4,25.6968,32,11.6435,60,25.6973ZM5.89,25.6968,32,38.8019,58.11,25.6973,32,12.5922Z"/><polygon class="cls-1" points="45.721 58.356 44.873 58.356 44.873 32.398 31.823 26.171 32.188 25.406 45.721 31.863 45.721 58.356"/></svg>