<svg id="Layer_1" data-name="Layer 1" xmlns="http://www.w3.org/2000/svg" width="64" height="64" viewBox="0 0 64 64"><defs><style>.cls-1{fill:#5a7e76;}</style></defs><title>nav-icon-green</title><path class="cls-1" d="M49.9136,16.8641a19.7373,19.7373,0,0,0-28.8694.1862,21.4006,21.4006,0,0,0-4.6386,7.7074,1.3665,1.3665,0,0,1,.1507.3015l.2129.6032c2.5632-8.204,9.907-14.2174,18.5279-14.3327.08,0,.1685.0089.2571.0089,10.7673,0,19.6543,9.2417,19.814,20.5677.133,10.315-7.06,19.1931-16.7363,20.8782H38.623c-1.8536,0-4.1862-.5144-5.1708-1.8536a2.7442,2.7442,0,0,1-.31-2.5367c1.1087-3.69.7983-6.847-.8869-9.1175-1.6319-2.1908-4.5145-3.4413-7.9025-3.4413a15.7544,15.7544,0,0,0-2.2173.1685,7.7594,7.7594,0,0,1-1.2506.1064,2.3234,2.3234,0,0,1-.3547-.0177l.2306.6475h.1241a9.08,9.08,0,0,0,1.3482-.1064,14.31,14.31,0,0,1,2.12-.1686c3.1929,0,5.8892,1.1619,7.3881,3.1929,1.57,2.1021,1.8359,5.0644.7894,8.55a3.3186,3.3186,0,0,0,.408,3.06c.9667,1.2949,3.0864,2.0665,5.6851,2.0665l.0888-.0089a20.169,20.169,0,0,0,12.4169-7.2727,22.2556,22.2556,0,0,0-1.2151-29.1887Z"/><path class="cls-1" d="M25.8531,27.0912a3.7153,3.7153,0,1,1,3.7153-3.7153A3.7194,3.7194,0,0,1,25.8531,27.0912Zm0-6.796a3.0808,3.0808,0,1,0,3.0808,3.0807A3.0841,3.0841,0,0,0,25.8531,20.2952Z"/><path class="cls-1" d="M35.1974,22.7891a3.7153,3.7153,0,1,1,3.7151-3.7152A3.7193,3.7193,0,0,1,35.1974,22.7891Zm0-6.796a3.0808,3.0808,0,1,0,3.0806,3.0808A3.0842,3.0842,0,0,0,35.1974,15.9931Z"/><path class="cls-1" d="M44.8794,27.0546a3.7152,3.7152,0,1,1,3.7153-3.7153A3.7193,3.7193,0,0,1,44.8794,27.0546Zm0-6.7958A3.0807,3.0807,0,1,0,47.96,23.3393,3.084,3.084,0,0,0,44.8794,20.2588Z"/><path class="cls-1" d="M48.3305,36.3382A3.7155,3.7155,0,1,1,52.0117,32.09a3.715,3.715,0,0,1-3.1438,4.21A3.7558,3.7558,0,0,1,48.3305,36.3382Zm.0087-6.7964a3.1159,3.1159,0,0,0-.4465.0322,3.0808,3.0808,0,0,0,.4378,6.13,3.1183,3.1183,0,0,0,.4466-.0322,3.08,3.08,0,0,0,2.6067-3.4908A3.0947,3.0947,0,0,0,48.3392,29.5418Z"/><path class="cls-1" d="M44.4979,45.932a3.7156,3.7156,0,1,1,3.6808-4.2483,3.7148,3.7148,0,0,1-3.1433,4.2095A3.76,3.76,0,0,1,44.4979,45.932Zm.0085-6.7967a3.0811,3.0811,0,1,0,.4381,6.13,3.08,3.08,0,0,0,2.6063-3.4908A3.0944,3.0944,0,0,0,44.5064,39.1353Z"/><path class="cls-1" d="M25.2655,54.081a2.3979,2.3979,0,0,1-3.0625-1.3263L11.68,26.9461a2.2281,2.2281,0,0,1,.0144-1.7405,2.3072,2.3072,0,0,1,1.3071-1.24l1.2407-.4759a2.3068,2.3068,0,0,1,1.8007.0475,2.2286,2.2286,0,0,1,1.175,1.2844l9.4372,26.225A2.3979,2.3979,0,0,1,25.2655,54.081ZM13.2522,24.6188a1.6133,1.6133,0,0,0-.9158.8648,1.5348,1.5348,0,0,0-.0086,1.1985L22.8506,52.4907a1.6855,1.6855,0,0,0,3.1467-1.2071L16.56,25.0586a1.5354,1.5354,0,0,0-.8082-.8853,1.6128,1.6128,0,0,0-1.259-.03Z"/><path class="cls-1" d="M15.7093,23.6763l-3.9181,1.503-1.336-3.4828,3.9181-1.503Zm-3.5156.5995,2.6121-1.002-.835-2.1768-2.6121,1.002Z"/><path class="cls-1" d="M12.9175,21.2806a3.0813,3.0813,0,0,1-3.2349-.2578c-2.7193-2.2387-1.34-10.331-1.28-10.6744l.1023-.5856.4622.374c.2713.22,6.6382,5.4179,6.0906,8.876A2.9769,2.9769,0,0,1,12.9175,21.2806Zm-3.9184-10.2c-.2651,1.9127-.8844,7.7456,1.1282,9.4023a2.4107,2.4107,0,0,0,2.54.1446c1.0221-.3921,1.578-.956,1.7-1.7241C14.7727,16.3429,10.4584,12.3488,8.9991,11.0807Z"/></svg>