<svg id="Layer_1" data-name="Layer 1" xmlns="http://www.w3.org/2000/svg" width="64" height="64" viewBox="0 0 64 64"><defs><style>.cls-1{fill:#191e1c;}</style></defs><title>nav-icon</title><path class="cls-1" d="M35.411,56.0311c-2.9242,0-5.3161-.8689-6.3983-2.3237a3.713,3.713,0,0,1-.4614-3.4465c1.1822-3.9347.8749-7.2681-.8886-9.6393-1.6971-2.282-4.7342-3.5907-8.3322-3.5907a15.89,15.89,0,0,0-2.3881.1845,10.0662,10.0662,0,0,1-1.5157.1208c-3.1918,0-5.4608-1.8324-6.4267-5.16l.0065-.0488v-.0512a24.581,24.581,0,0,1,6.6-16.9249,22.23,22.23,0,0,1,32.5289-.2108A25.0617,25.0617,0,0,1,49.51,47.8269a22.7172,22.7172,0,0,1-13.996,8.2Zm-16.08-19.7152c3.8266,0,7.0726,1.4139,8.9059,3.8791,1.9039,2.56,2.25,6.1116,1,10.2717a3.1414,3.1414,0,0,0,.35,2.8653c1.1162,1.5007,3.7406,2.0867,5.8246,2.0867h.0168C46.3332,53.5121,54.4361,43.5153,54.28,31.8921,54.1091,19.1238,44.0944,8.71,31.9557,8.71c-.0975,0-.1944-.0121-.2919-.0107C19.5709,8.8608,9.7194,19.32,9.68,32.0325c.6239,2.1084,2.1273,4.592,5.7466,4.592a9.4181,9.4181,0,0,0,1.4077-.114A16.5515,16.5515,0,0,1,19.3305,36.3159Z"/><path class="cls-1" d="M21.0254,26.4629a4.1866,4.1866,0,1,1,4.1865-4.1865A4.1912,4.1912,0,0,1,21.0254,26.4629Zm0-7.6581a3.4716,3.4716,0,1,0,3.4716,3.4716A3.4754,3.4754,0,0,0,21.0254,18.8048Z"/><path class="cls-1" d="M31.5551,21.6151a4.1866,4.1866,0,1,1,4.1864-4.1866A4.1912,4.1912,0,0,1,31.5551,21.6151Zm0-7.6581a3.4716,3.4716,0,1,0,3.4714,3.4715A3.4754,3.4754,0,0,0,31.5551,13.957Z"/><path class="cls-1" d="M42.4654,26.4217a4.1865,4.1865,0,1,1,4.1866-4.1866A4.1911,4.1911,0,0,1,42.4654,26.4217Zm0-7.6579a3.4715,3.4715,0,1,0,3.4716,3.4713A3.4753,3.4753,0,0,0,42.4654,18.7638Z"/><path class="cls-1" d="M46.3543,36.8831a4.1869,4.1869,0,1,1,4.1482-4.7873A4.1861,4.1861,0,0,1,46.96,36.8393,4.229,4.229,0,0,1,46.3543,36.8831Zm.01-7.6587a3.5174,3.5174,0,0,0-.5032.0363,3.4717,3.4717,0,0,0,.4934,6.9074,3.5164,3.5164,0,0,0,.5032-.0363,3.4711,3.4711,0,0,0,2.9375-3.9336A3.4874,3.4874,0,0,0,46.3641,29.2244Z"/><path class="cls-1" d="M42.0355,47.694a4.187,4.187,0,1,1,4.1478-4.7873A4.1861,4.1861,0,0,1,42.6412,47.65,4.2335,4.2335,0,0,1,42.0355,47.694Zm.01-7.6589a3.472,3.472,0,1,0,.4937,6.9076,3.4713,3.4713,0,0,0,2.9369-3.9336A3.4869,3.4869,0,0,0,42.0451,40.0351Z"/></svg>