<svg id="Layer_1" data-name="Layer 1" xmlns="http://www.w3.org/2000/svg" width="64" height="64" viewBox="0 0 64 64"><defs><style>.cls-1{fill:#191e1c;}</style></defs><title>nav-icon</title><path class="cls-1" d="M32,55A23,23,0,1,1,55,32,23.0261,23.0261,0,0,1,32,55ZM32,9.6539A22.3461,22.3461,0,1,0,54.3461,32,22.3714,22.3714,0,0,0,32,9.6539Z"/><path class="cls-1" d="M32,52.3082A20.3082,20.3082,0,1,1,52.3082,32,20.3312,20.3312,0,0,1,32,52.3082Zm0-39.9625A19.6543,19.6543,0,1,0,51.6543,32,19.6764,19.6764,0,0,0,32,12.3457Z"/><path class="cls-1" d="M31.6893,34.19a1.88,1.88,0,1,1,1.88-1.88A1.882,1.882,0,0,1,31.6893,34.19Zm0-3.1057a1.2259,1.2259,0,1,0,1.226,1.2258A1.2273,1.2273,0,0,0,31.6893,31.0847Z"/><path class="cls-1" d="M32.21,30.5548c0,.2264-.2117.3306-.469.3306h0c-.2571,0-.4026-.1042-.4026-.3306V17.7086c0-.2264.1455-.3377.4026-.3377h0c.2573,0,.469.1113.469.3377Z"/><path class="cls-1" d="M42.9349,31.7573c.1647,0,.1741.27.1741.5273v.0391c0,.2571-.0094.5234-.1741.5234H33.5923c-.1647,0-.2922-.305-.2922-.5622v.0385c0-.2573.1275-.5661.2922-.5661Z"/><path class="cls-1" d="M32.3106,14.9693a.673.673,0,1,1-.6729-.6729A.6731.6731,0,0,1,32.3106,14.9693Z"/><path class="cls-1" d="M32.3106,49.4448a.673.673,0,1,1-.6729-.6729A.673.673,0,0,1,32.3106,49.4448Z"/><path class="cls-1" d="M14.4,31.5342a.673.673,0,1,1-.673.6729A.673.673,0,0,1,14.4,31.5342Z"/><path class="cls-1" d="M49.1861,31.5342a.673.673,0,1,1-.6729.6729A.6729.6729,0,0,1,49.1861,31.5342Z"/></svg>