<?xml version="1.0" encoding="utf-8"?>
<!-- Generator: Adobe Illustrator 24.0.2, SVG Export Plug-In . SVG Version: 6.00 Build 0)  -->
<svg version="1.1" xmlns="http://www.w3.org/2000/svg" xmlns:xlink="http://www.w3.org/1999/xlink" x="0px" y="0px"
	 viewBox="0 0 250 250" style="enable-background:new 0 0 250 250;" xml:space="preserve">
<style type="text/css">
	.st0{display:none;}
	.st1{display:inline;}
	.st2{fill:#FFFFFF;}
	.st3{display:inline;fill:none;stroke:#000000;stroke-width:32;stroke-miterlimit:10;}
	.st4{display:inline;fill:none;stroke:#000000;stroke-width:32;stroke-miterlimit:5;}
	.st5{fill:none;stroke:#FFFFFF;stroke-width:32;stroke-miterlimit:5;}
	.st6{display:inline;fill:none;stroke:#FFFFFF;stroke-width:32;stroke-miterlimit:5;}
	.st7{opacity:0.2;fill:#A0E2D8;stroke:#ACEADF;stroke-miterlimit:10;}
	.st8{opacity:0.14;fill:url(#SVGID_3_);}
	.st9{fill:#78ADFF;}
	.st10{fill:#78FFBF;}
	.st11{display:inline;fill:#6DE8D0;}
	.st12{opacity:0.5;}
	.st13{fill:url(#SVGID_4_);}
	.st14{fill:#FABFC6;}
	.st15{fill:#ACEADF;}
	.st16{opacity:0.32;}
	.st17{fill:url(#SVGID_5_);}
	.st18{fill:url(#SVGID_6_);}
	.st19{fill:url(#SVGID_7_);}
	.st20{fill:url(#SVGID_8_);}
	.st21{fill:url(#SVGID_9_);}
	.st22{fill:#F7B4C1;}
	.st23{fill:#A0E2D8;}
	.st24{fill:url(#SVGID_10_);}
	.st25{opacity:0.2;}
	.st26{fill:url(#SVGID_11_);}
	.st27{fill:url(#SVGID_12_);}
	.st28{fill:url(#SVGID_13_);}
	.st29{fill:#6DE8D0;}
	.st30{fill:#6DBDE8;}
	.st31{fill:url(#SVGID_14_);}
	.st32{fill:url(#SVGID_15_);}
	.st33{fill:url(#SVGID_16_);}
	.st34{fill:url(#SVGID_17_);}
	.st35{fill:url(#SVGID_18_);}
	.st36{fill:url(#SVGID_19_);}
	.st37{fill:url(#SVGID_20_);}
	.st38{fill:url(#SVGID_21_);}
	.st39{fill:#85F5FF;}
	.st40{fill:#46788E;}
	.st41{display:inline;fill:#191E1C;}
	.st42{fill:url(#SVGID_22_);}
	.st43{opacity:0.25;}
	.st44{fill:url(#SVGID_23_);}
	.st45{fill:url(#SVGID_24_);}
	.st46{fill:url(#SVGID_25_);}
	.st47{opacity:0.1;fill:#AAE5D9;}
	.st48{fill:#191E1C;}
	.st49{opacity:0.3;fill:none;stroke:#AAE5D9;stroke-miterlimit:10;}
	.st50{opacity:0.6;fill:none;stroke:#AAE5D9;stroke-miterlimit:10;}
	.st51{fill:url(#SVGID_26_);}
	.st52{fill:#F4BDC6;}
	.st53{fill:#AAE5D9;}
	.st54{fill:url(#SVGID_27_);}
	.st55{fill:url(#SVGID_28_);}
	.st56{fill:#F2AFBC;stroke:#ACEADF;stroke-miterlimit:10;}
	.st57{fill:none;stroke:#AAE5D9;stroke-miterlimit:10;}
	.st58{fill:#F2AFBC;}
	.st59{fill:url(#SVGID_29_);}
	.st60{opacity:0.18;}
	.st61{fill:url(#SVGID_30_);}
	.st62{fill:url(#SVGID_31_);}
	.st63{fill:url(#SVGID_32_);}
	.st64{fill:url(#SVGID_33_);}
	.st65{fill:url(#SVGID_34_);}
</style>
<g id="Layer_1" class="st0">
</g>
<g id="Layer_11">
</g>
<g id="Layer_2" class="st0">
</g>
<g id="Line">
</g>
<g id="Background">
</g>
<g id="Footer" class="st0">
</g>
<g id="Layer_5" class="st0">
</g>
<g id="Logo">
</g>
<g id="Swatches" class="st0">
</g>
<g id="Layer_3" class="st0">
</g>
<g id="Layer_10">
	<g>
		<g>
			<linearGradient id="SVGID_2_" gradientUnits="userSpaceOnUse" x1="89.4937" y1="178.4102" x2="191.1458" y2="280.0623">
				<stop  offset="0" style="stop-color:#FFFFFF;stop-opacity:0"/>
				<stop  offset="0.1591" style="stop-color:#F2F5F7;stop-opacity:4.971156e-02"/>
				<stop  offset="0.2319" style="stop-color:#CCD6D6;stop-opacity:0.1891"/>
				<stop  offset="0.3286" style="stop-color:#A0B2AF;stop-opacity:0.3742"/>
				<stop  offset="0.4221" style="stop-color:#7D9691;stop-opacity:0.553"/>
				<stop  offset="0.51" style="stop-color:#64817C;stop-opacity:0.7212"/>
				<stop  offset="0.5902" style="stop-color:#55756F;stop-opacity:0.8747"/>
				<stop  offset="0.6557" style="stop-color:#50716A"/>
				<stop  offset="1" style="stop-color:#A1E2D3;stop-opacity:0.1"/>
			</linearGradient>
			<path style="fill:url(#SVGID_2_);" d="M140.3,216.6c-55.6,0-100.9,5.6-100.9,12.6c0,6.9,45.2,12.6,100.9,12.6
				s100.9-5.6,100.9-12.6C241.2,222.3,195.9,216.6,140.3,216.6z"/>
		</g>
		<g>
			<path class="st22" d="M241.2,124.4c0,1.2,0,2.4-0.1,3.6c-0.1,2.8-0.3,5.5-0.5,8.2c-0.1,1.2-0.3,2.4-0.4,3.7
				c-0.2,1.4-0.4,2.7-0.6,4c-0.1,0.8-0.3,1.6-0.5,2.4c-0.1,0.5-0.2,0.9-0.3,1.4c-1.8,8.8-4.6,17.1-8.2,25.1
				c-0.5,1.2-1.1,2.3-1.6,3.4c-0.6,1.1-1.2,2.2-1.8,3.3c-0.6,1.1-1.2,2.2-1.8,3.2L170.3,17.4c0.2,0.1,0.5,0.2,0.7,0.3
				c0.9,0.4,1.7,0.8,2.5,1.1c3.2,1.5,6.3,3.1,9.3,4.8c0.8,0.5,1.7,1,2.5,1.5c1.2,0.7,2.3,1.4,3.4,2.1c1.2,0.8,2.4,1.6,3.6,2.5
				c1.1,0.8,2.2,1.6,3.3,2.5c2.2,1.7,4.4,3.5,6.5,5.4c2.1,1.8,4.1,3.8,6,5.7c2.9,3,5.6,6.1,8.2,9.4c0,0,0,0,0,0.1
				c7.5,9.5,13.5,20.2,17.7,31.7c0.2,0.5,0.4,0.9,0.5,1.4c0.5,1.3,0.9,2.7,1.4,4.1c0.5,1.5,0.9,2.9,1.3,4.4c0.3,1.3,0.7,2.5,1,3.8
				c0.4,1.5,0.7,3.1,1,4.6c0.2,1.3,0.5,2.6,0.7,3.9v0c0.2,1.4,0.4,2.9,0.6,4.3c0.2,1.5,0.3,2.9,0.4,4.4c0.1,1.5,0.2,2.9,0.2,4.4
				C241.1,121.4,241.2,122.9,241.2,124.4z"/>
			<path class="st22" d="M169.4,17l-44.6,80.4L80.3,17.2v0c1.6-0.7,3.2-1.3,4.8-1.9c0.8-0.3,1.5-0.6,2.3-0.8
				c0.3-0.1,0.5-0.2,0.8-0.3c1.7-0.6,3.4-1.1,5.1-1.6c2.7-0.8,5.5-1.5,8.4-2c0.8-0.2,1.6-0.3,2.4-0.5c4.2-0.8,8.4-1.3,12.7-1.6
				c1.8-0.1,3.5-0.2,5.3-0.3c1,0,2.1,0,3.1,0c1.1,0,2.1,0,3.2,0c1.6,0.1,3.2,0.1,4.8,0.2c0.3,0,0.6,0.1,0.9,0.1
				c1.8,0.2,3.7,0.3,5.5,0.6C149.9,10.4,160,13.1,169.4,17z"/>
			<path class="st22" d="M79.2,17.6L24.3,182.3c-0.6-1.1-1.2-2.1-1.8-3.2c-0.6-1.1-1.2-2.2-1.7-3.3c-0.5-1-1-2-1.4-3
				c-0.6-1.4-1.3-2.8-1.8-4.3c-0.4-1-0.8-1.9-1.2-2.9c-0.5-1.2-0.9-2.4-1.3-3.6c-0.7-1.9-1.3-3.9-1.8-5.9c-0.1-0.5-0.3-0.9-0.4-1.4
				c-0.3-1.2-0.6-2.4-0.9-3.6c-0.3-1.1-0.5-2.3-0.8-3.4c-0.1-0.3-0.1-0.6-0.2-0.8c-0.2-1.1-0.4-2.1-0.6-3.2c0-0.1,0-0.1,0-0.2
				c-0.4-2.5-0.7-5-1-7.5c-0.1-1.2-0.2-2.4-0.3-3.7c-0.1-1.5-0.2-2.9-0.2-4.4c0-1.2-0.1-2.4-0.1-3.6c0-1.5,0-3,0.1-4.5
				c0-1.5,0.1-3,0.2-4.5c0.1-1.5,0.3-2.9,0.4-4.3c0.1-1.1,0.3-2.2,0.4-3.3c0.2-1.4,0.4-2.8,0.7-4.3c0.1-0.9,0.3-1.7,0.5-2.6
				c1.3-6.5,3.2-12.9,5.6-19c0.5-1.3,1.1-2.6,1.6-3.9c0.6-1.3,1.2-2.6,1.8-3.8c0.6-1.3,1.3-2.5,1.9-3.8c0.7-1.3,1.4-2.6,2.1-3.9
				c0.7-1.1,1.3-2.2,1.9-3.2c0.3-0.5,0.7-1,1-1.6c1.2-1.9,2.4-3.7,3.7-5.5c0.8-1.1,1.7-2.2,2.5-3.3c0.1-0.1,0.2-0.2,0.2-0.3
				c0.8-1,1.6-1.9,2.4-2.9c0.9-1.1,1.8-2.1,2.7-3.1c2.8-3.1,5.7-6,8.9-8.8c1.1-0.9,2.1-1.8,3.2-2.7c1.1-0.9,2.1-1.8,3.2-2.6
				c1.1-0.9,2.2-1.7,3.3-2.5c0.9-0.7,1.8-1.3,2.7-1.9c0.3-0.2,0.6-0.4,0.8-0.5c1.1-0.8,2.2-1.5,3.4-2.2c1-0.6,1.9-1.2,2.9-1.8
				c0.3-0.2,0.6-0.3,0.8-0.5c1-0.6,2.1-1.2,3.1-1.7c1.4-0.7,2.8-1.4,4.2-2.1c1.2-0.6,2.4-1.1,3.6-1.7C79,17.7,79.1,17.6,79.2,17.6z"
				/>
			<path class="st23" d="M203.8,209.7c-1.2,1.2-2.5,2.3-3.8,3.4c-1.1,0.9-2.2,1.8-3.3,2.7c-0.5,0.5-1.1,0.9-1.6,1.3
				c-0.2,0.2-0.4,0.3-0.5,0.4c-1,0.8-2,1.5-3.1,2.2c-1.2,0.9-2.5,1.7-3.7,2.5c-1.7,1.1-3.5,2.2-5.3,3.2c-1.5,0.9-3,1.7-4.6,2.5
				c-0.1,0-0.1,0.1-0.2,0.1c-1.6,0.8-3.1,1.6-4.8,2.3c-2.6,1.2-5.3,2.3-8,3.3c-0.9,0.3-1.8,0.7-2.7,1c-0.6,0.2-1.2,0.4-1.8,0.6
				c-0.7,0.2-1.4,0.5-2.1,0.7c-0.5,0.2-1,0.3-1.5,0.4c-0.9,0.3-1.8,0.5-2.7,0.8c-2.2,0.6-4.5,1.1-6.8,1.5c-0.9,0.2-1.8,0.4-2.7,0.5
				c-0.9,0.2-1.8,0.3-2.7,0.4c-1.6,0.3-3.2,0.5-4.9,0.6c-1.9,0.2-3.9,0.3-5.9,0.4c-0.8,0.1-1.6,0.1-2.3,0.1c-1.2,0-2.4,0.1-3.6,0.1
				c-1.2,0-2.4,0-3.6-0.1c-0.8,0-1.6,0-2.4-0.1c-2.7-0.1-5.5-0.4-8.1-0.7c-0.7-0.1-1.4-0.2-2.1-0.3c-4.4-0.6-8.6-1.5-12.8-2.5
				c-0.9-0.2-1.8-0.5-2.7-0.8c-0.9-0.2-1.7-0.5-2.5-0.7c-1.9-0.6-3.8-1.2-5.7-1.9c-0.8-0.3-1.7-0.6-2.5-0.9c-1-0.4-1.9-0.8-2.8-1.2
				c-1-0.4-2-0.9-3-1.3c-1.6-0.7-3.1-1.5-4.7-2.2c0,0-0.1-0.1-0.2-0.1c-1.6-0.8-3.1-1.7-4.7-2.5c-1-0.6-2-1.2-3-1.8
				c-0.6-0.4-1.3-0.8-1.8-1.2c-0.3-0.2-0.6-0.4-0.9-0.6c-1.1-0.7-2.2-1.5-3.3-2.2c-1.3-0.9-2.6-1.9-3.9-2.9
				c-1.6-1.2-3.2-2.5-4.8-3.8c-1.3-1.1-2.5-2.2-3.7-3.3L86.3,88l38.4,69.3L163.2,88L203.8,209.7z"/>
		</g>
		<g class="st60">
			<radialGradient id="SVGID_3_" cx="97.2554" cy="87.5828" r="128.3229" gradientUnits="userSpaceOnUse">
				<stop  offset="0" style="stop-color:#FFFFFF"/>
				<stop  offset="9.083904e-02" style="stop-color:#F1F1F1"/>
				<stop  offset="0.2611" style="stop-color:#CECECE"/>
				<stop  offset="0.4925" style="stop-color:#949494"/>
				<stop  offset="0.7728" style="stop-color:#454545"/>
				<stop  offset="1" style="stop-color:#000000"/>
			</radialGradient>
			<path style="fill:url(#SVGID_3_);" d="M241.1,119.9c0-1.5-0.1-3-0.2-4.4c-0.1-1.5-0.3-2.9-0.4-4.4c-0.2-1.5-0.4-2.9-0.6-4.3v0
				c-0.2-1.3-0.4-2.6-0.7-3.9c-0.3-1.6-0.6-3.1-1-4.6c-0.3-1.3-0.6-2.6-1-3.8c-0.4-1.5-0.8-2.9-1.3-4.4c-0.4-1.4-0.9-2.7-1.4-4.1
				c-0.1-0.5-0.3-0.9-0.5-1.4c-4.2-11.6-10.2-22.2-17.7-31.7c0,0,0-0.1,0-0.1c-2.6-3.3-5.3-6.4-8.2-9.4c-1.9-2-4-3.9-6-5.7
				c-2.1-1.9-4.3-3.6-6.5-5.4c-1.1-0.9-2.2-1.7-3.3-2.5c-1.2-0.9-2.4-1.7-3.6-2.5c-1.1-0.8-2.2-1.5-3.4-2.1c-0.8-0.5-1.7-1-2.5-1.5
				c-3-1.8-6.1-3.3-9.3-4.8c-0.8-0.4-1.7-0.8-2.5-1.1c-0.2-0.1-0.5-0.2-0.7-0.3l55.1,165.4c0.6-1.1,1.3-2.1,1.8-3.2
				c0.6-1.1,1.2-2.2,1.8-3.3c0.6-1.1,1.1-2.2,1.6-3.4c3.7-7.9,6.4-16.3,8.2-25.1c0.1-0.5,0.2-0.9,0.3-1.4c0.2-0.8,0.3-1.6,0.5-2.4
				c0.2-1.3,0.4-2.7,0.6-4c0.2-1.2,0.3-2.4,0.4-3.7c0.3-2.7,0.5-5.5,0.5-8.2c0-1.2,0.1-2.4,0.1-3.6
				C241.2,122.9,241.1,121.4,241.1,119.9z M124.8,157.4L86.3,88L45.9,209.4c1.2,1.1,2.5,2.2,3.7,3.3c1.6,1.3,3.2,2.6,4.8,3.8
				c1.3,1,2.6,1.9,3.9,2.9c1.1,0.8,2.2,1.5,3.3,2.2c0.3,0.2,0.6,0.4,0.9,0.6c0.6,0.4,1.2,0.8,1.8,1.2c1,0.6,2,1.2,3,1.8
				c1.6,0.9,3.1,1.8,4.7,2.5c0.1,0,0.1,0.1,0.2,0.1c1.6,0.8,3.1,1.6,4.7,2.2c1,0.5,2,0.9,3,1.3c0.9,0.4,1.8,0.8,2.8,1.2
				c0.8,0.3,1.7,0.6,2.5,0.9c1.9,0.7,3.8,1.3,5.7,1.9c0.8,0.3,1.6,0.5,2.5,0.7c0.9,0.3,1.8,0.5,2.7,0.8c4.2,1.1,8.5,1.9,12.8,2.5
				c0.7,0.1,1.4,0.2,2.1,0.3c2.7,0.3,5.4,0.6,8.1,0.7c0.8,0.1,1.6,0.1,2.4,0.1c1.2,0,2.4,0.1,3.6,0.1c1.2,0,2.4,0,3.6-0.1
				c0.8,0,1.6,0,2.3-0.1c2-0.1,3.9-0.2,5.9-0.4c1.7-0.2,3.3-0.4,4.9-0.6c0.9-0.1,1.8-0.3,2.7-0.4c0.9-0.1,1.8-0.3,2.7-0.5
				c2.3-0.4,4.6-0.9,6.8-1.5c0.9-0.2,1.8-0.5,2.7-0.8c0.5-0.1,1-0.3,1.5-0.4c0.7-0.2,1.4-0.4,2.1-0.7c0.6-0.2,1.2-0.4,1.8-0.6
				c0.9-0.3,1.8-0.6,2.7-1c2.7-1,5.4-2.1,8-3.3c1.6-0.7,3.2-1.5,4.8-2.3c0.1,0,0.1-0.1,0.2-0.1c1.6-0.8,3.1-1.6,4.6-2.5
				c1.8-1,3.5-2.1,5.3-3.2c1.3-0.8,2.5-1.6,3.7-2.5c1-0.7,2-1.5,3.1-2.2c0.2-0.1,0.4-0.3,0.5-0.4c0.6-0.4,1.1-0.8,1.6-1.3
				c1.1-0.9,2.2-1.8,3.3-2.7c1.3-1.1,2.6-2.2,3.8-3.4L163.2,88L124.8,157.4z M169.4,17c-9.4-3.9-19.4-6.6-29.9-7.9
				c-1.8-0.2-3.7-0.4-5.5-0.6c-0.3,0-0.6,0-0.9-0.1c-1.6-0.1-3.2-0.2-4.8-0.2c-1.1,0-2.1,0-3.2,0c-1,0-2.1,0-3.1,0
				c-1.8,0.1-3.5,0.1-5.3,0.3c-4.3,0.3-8.5,0.9-12.7,1.6c-0.8,0.1-1.6,0.3-2.4,0.5c-2.8,0.6-5.6,1.3-8.4,2c-1.7,0.5-3.4,1-5.1,1.6
				c-0.3,0.1-0.5,0.2-0.8,0.3c-0.8,0.3-1.5,0.6-2.3,0.8c-1.6,0.6-3.2,1.2-4.8,1.9l44.5,80.3L169.4,17z M79,17.7
				c-1.2,0.5-2.4,1.1-3.6,1.7c-1.4,0.7-2.8,1.4-4.2,2.1c-1.1,0.6-2.1,1.1-3.1,1.7c-0.3,0.1-0.6,0.3-0.8,0.5c-1,0.6-1.9,1.2-2.9,1.8
				c-1.2,0.7-2.3,1.4-3.4,2.2c-0.3,0.1-0.6,0.3-0.8,0.5c-0.9,0.6-1.8,1.3-2.7,1.9c-1.1,0.8-2.2,1.6-3.3,2.5
				c-1.1,0.9-2.2,1.7-3.2,2.6c-1.1,0.9-2.1,1.8-3.2,2.7c-3.1,2.7-6,5.7-8.9,8.8c-0.9,1.1-1.8,2.1-2.7,3.1c-0.8,1-1.6,1.9-2.4,2.9
				c-0.1,0.1-0.2,0.2-0.2,0.3c-0.9,1.1-1.7,2.2-2.5,3.3c-1.3,1.8-2.5,3.6-3.7,5.5c-0.3,0.5-0.7,1-1,1.6c-0.6,1.1-1.3,2.1-1.9,3.2
				c-0.7,1.3-1.5,2.6-2.1,3.9c-0.6,1.3-1.3,2.5-1.9,3.8c-0.6,1.3-1.2,2.5-1.8,3.8c-0.6,1.3-1.1,2.6-1.6,3.9
				c-2.4,6.1-4.3,12.5-5.6,19c-0.2,0.9-0.4,1.7-0.5,2.6c-0.3,1.4-0.5,2.8-0.7,4.3c-0.2,1.1-0.3,2.2-0.4,3.3
				c-0.2,1.4-0.3,2.9-0.4,4.3c-0.1,1.5-0.2,3-0.2,4.5c-0.1,1.5-0.1,3-0.1,4.5c0,1.2,0,2.4,0.1,3.6c0,1.5,0.1,2.9,0.2,4.4
				c0.1,1.3,0.2,2.5,0.3,3.7c0.3,2.5,0.6,5,1,7.5c0,0.1,0,0.1,0,0.2c0.2,1.1,0.4,2.1,0.6,3.2c0,0.3,0.1,0.6,0.2,0.8
				c0.2,1.1,0.5,2.3,0.8,3.4c0.3,1.2,0.6,2.4,0.9,3.6c0.1,0.5,0.3,0.9,0.4,1.4c0.6,2,1.2,3.9,1.8,5.9c0.4,1.2,0.8,2.4,1.3,3.6
				c0.4,1,0.8,1.9,1.2,2.9c0.6,1.5,1.2,2.9,1.8,4.3c0.5,1,1,2,1.4,3c0.6,1.1,1.1,2.2,1.7,3.3c0.6,1.1,1.2,2.2,1.8,3.2L79.2,17.6
				C79.1,17.6,79,17.7,79,17.7z"/>
			<radialGradient id="SVGID_4_" cx="124.8513" cy="113.3578" r="98.4731" gradientUnits="userSpaceOnUse">
				<stop  offset="0" style="stop-color:#FFFFFF"/>
				<stop  offset="1" style="stop-color:#FFFFFF"/>
			</radialGradient>
			<path class="st13" d="M225.4,182.8c-5.8,10-13.2,19.1-21.6,27L163.2,88l-38.5,69.3L86.3,88L45.9,209.4
				c-8.5-7.9-15.7-17-21.6-27.1L79.2,17.6c0.3-0.2,0.7-0.3,1.1-0.4l44.5,80.3L169.4,17c0.3,0.1,0.6,0.2,0.9,0.4L225.4,182.8z"/>
		</g>
		<path class="st2" d="M225.4,182.8c-5.8,10-13.2,19.1-21.6,27L163.2,88l-38.5,69.3L86.3,88L45.9,209.4c-8.5-7.9-15.7-17-21.6-27.1
			L79.2,17.6c0.3-0.2,0.7-0.3,1.1-0.4l44.5,80.3L169.4,17c0.3,0.1,0.6,0.2,0.9,0.4L225.4,182.8z"/>
	</g>
</g>
</svg>
